<svg width="144" height="144" viewBox="0 0 144 144" fill="none" xmlns="http://www.w3.org/2000/svg">
<path d="M57.7332 52.2803C61.907 49.2799 66.9175 47.6658 72.0578 47.6658C77.1981 47.6658 82.2086 49.2799 86.3824 52.2803C86.6513 52.4773 86.982 52.5714 87.3144 52.5456C87.6468 52.5199 87.9589 52.3759 88.1944 52.1398L105.21 35.1241C105.346 34.9879 105.453 34.825 105.523 34.6456C105.593 34.4662 105.626 34.2742 105.618 34.0817C105.61 33.8892 105.563 33.7004 105.479 33.5272C105.394 33.354 105.275 33.2001 105.128 33.0752C95.8992 25.2227 84.177 20.9106 72.0593 20.9105C59.9416 20.9104 48.2193 25.2223 38.9901 33.0746C38.8444 33.2006 38.726 33.3548 38.6418 33.5279C38.5576 33.7011 38.5096 33.8896 38.5006 34.0819C38.4931 34.2743 38.5256 34.4663 38.5959 34.6456C38.6661 34.825 38.7727 34.9878 38.9089 35.1241L55.9241 52.1393C56.1593 52.3746 56.4709 52.5181 56.8026 52.5439C57.1343 52.5698 57.4644 52.4763 57.7332 52.2803ZM41.9678 34.2353C50.4917 27.3636 61.1107 23.6163 72.0595 23.6163C83.0083 23.6163 93.6273 27.3636 102.151 34.2353L87.0467 49.3398C82.6093 46.3786 77.3941 44.7982 72.0593 44.7981C66.7245 44.798 61.5093 46.3782 57.0717 49.3392L41.9678 34.2353Z" fill="white"/>
<path d="M33.1937 38.871C24.8808 48.6382 20.5508 61.1774 21.0654 73.9929C21.58 86.8083 26.9015 98.96 35.9707 108.029C45.0399 117.098 57.1916 122.42 70.007 122.935C82.8224 123.449 95.3617 119.119 105.129 110.806L105.207 110.728C105.469 110.466 105.616 110.111 105.616 109.741C105.616 109.371 105.469 109.016 105.207 108.754L88.1949 91.7416C87.9596 91.5063 87.648 91.3628 87.3163 91.337C86.9846 91.3111 86.6546 91.4046 86.3857 91.6006C81.6999 95.0164 75.9481 96.6459 70.167 96.1955C64.3859 95.7451 58.9559 93.2445 54.8557 89.1442C50.7554 85.044 48.2548 79.614 47.8044 73.8329C47.354 68.0518 48.9835 62.3 52.3993 57.6142C52.5953 57.3453 52.6888 57.0153 52.6629 56.6836C52.6371 56.3518 52.4936 56.0403 52.2583 55.805L35.2431 38.7898C35.1068 38.6536 34.9439 38.5471 34.7645 38.477C34.5851 38.4068 34.3931 38.3746 34.2006 38.3822C34.0081 38.3898 33.8193 38.4372 33.646 38.5213C33.4727 38.6054 33.3187 38.7245 33.1937 38.871ZM49.4594 56.9538C46.0004 62.1688 44.4515 68.4196 45.0754 74.6463C45.6994 80.873 48.4577 86.6922 52.8827 91.1172C57.3077 95.5422 63.1269 98.3005 69.3536 98.9245C75.5803 99.5484 81.8311 97.9995 87.0461 94.5405L102.151 109.645C92.8798 117.048 81.2061 120.775 69.3608 120.113C57.5155 119.452 46.3293 114.449 37.9403 106.06C29.5513 97.6706 24.548 86.4844 23.8865 74.6391C23.2251 62.7937 26.952 51.1201 34.3548 41.8493L49.4594 56.9538Z" fill="white"/>
<path d="M108.876 38.7898L91.8601 55.8056C91.6249 56.0408 91.4815 56.3523 91.4557 56.684C91.43 57.0156 91.5236 57.3455 91.7197 57.6142C94.7201 61.788 96.3341 66.7985 96.3341 71.9388C96.3341 77.0791 94.7201 82.0896 91.7197 86.2633C91.5237 86.5322 91.4302 86.8622 91.456 87.194C91.4819 87.5257 91.6254 87.8373 91.8607 88.0725L108.876 105.088C109.005 105.218 109.159 105.32 109.329 105.391C109.498 105.461 109.679 105.497 109.863 105.497C110.046 105.497 110.228 105.461 110.397 105.391C110.566 105.32 110.72 105.218 110.85 105.088L110.928 105.009C118.78 95.7799 123.092 84.0576 123.091 71.9401C123.091 59.8225 118.78 48.1004 110.928 38.871C110.803 38.7246 110.649 38.6055 110.475 38.5214C110.302 38.4373 110.113 38.3899 109.921 38.3822C109.729 38.3745 109.537 38.4067 109.357 38.4768C109.178 38.5468 109.015 38.6532 108.879 38.7893L108.876 38.7898ZM109.765 102.032L94.6607 86.9282C97.6218 82.4907 99.202 77.2754 99.2019 71.9407C99.2018 66.6059 97.6214 61.3907 94.6602 56.9533L109.765 41.8487C116.636 50.3726 120.384 60.9917 120.384 71.9405C120.384 82.8893 116.636 93.5083 109.765 102.032Z" fill="white"/>
<path d="M66.3106 60.2354C67.2973 60.2354 68.0702 60.6464 68.6293 61.4685C69.2213 62.2577 69.5502 63.3428 69.616 64.7239V69.903H70.9973L73.316 72.2706H69.616V78.9788C69.616 79.5049 69.8133 79.9818 70.208 80.4092C70.6027 80.8367 71.244 81.0505 72.132 81.0505C73.2831 81.0505 74.5 80.4092 75.7827 79.1268C77.0982 77.8115 77.7889 76.4633 77.8547 75.0821L77.2627 75.1315C75.1578 75.1315 74.1053 74.0135 74.1053 71.7774C74.1053 71.0211 74.352 70.347 74.8453 69.7551C75.3387 69.1632 76.1609 68.8672 77.312 68.8672C78.5289 68.8672 79.5485 69.3934 80.3707 70.4456C81.2258 71.4979 81.6533 72.7803 81.6534 74.2929C81.6533 76.529 80.6996 78.6664 78.792 80.7052C76.9173 82.7439 74.6809 83.7633 72.0827 83.7633C71.1289 83.7633 70.1093 83.3523 69.024 82.5302C67.9715 81.6752 67.3466 80.8532 67.1493 80.064V72.2706H64.7813L62.512 69.903H67.1493V65.2172C67.1493 64.2636 66.5738 63.7046 65.4226 63.5401C64.8964 63.5401 64.5511 63.6224 64.3866 63.7867C64.0906 63.2935 63.8111 62.7016 63.548 62.011V61.7644C63.548 61.337 63.8769 60.9753 64.5346 60.6793C65.1924 60.3834 65.7844 60.2354 66.3106 60.2354Z" fill="#F2F2F2"/>
</svg>
