<svg width="96" height="77" viewBox="0 0 96 77" fill="none" xmlns="http://www.w3.org/2000/svg">
<path d="M70.6273 20.5619C69.9212 19.8545 68.7755 19.8533 68.0694 20.5589L46.3669 42.204L38.5367 33.6997C37.8602 32.9653 36.7162 32.9176 35.9806 33.5941C35.2455 34.2707 35.1984 35.4152 35.875 36.1503L44.9806 46.0392C45.314 46.4016 45.7807 46.6121 46.2728 46.6223C46.286 46.6228 46.2988 46.6228 46.3114 46.6228C46.7896 46.6228 47.2497 46.4329 47.5886 46.0952L70.6238 23.1204C71.3317 22.4149 71.3329 21.2692 70.6273 20.5619Z" fill="#27AE60"/>
<path d="M70.1909 36.1909C69.1917 36.1909 68.3819 37.0007 68.3819 38C68.3819 49.239 59.239 58.3819 48 58.3819C36.7616 58.3819 27.6181 49.239 27.6181 38C27.6181 26.7616 36.7616 17.6181 48 17.6181C48.9992 17.6181 49.8091 16.8083 49.8091 15.8091C49.8091 14.8098 48.9992 14 48 14C34.7662 14 24 24.7662 24 38C24 51.2332 34.7662 62 48 62C61.2332 62 72 51.2332 72 38C72 37.0008 71.1901 36.1909 70.1909 36.1909Z" fill="#27AE60"/>
<g opacity="0.3">
<path d="M92.9165 53.4988C93.768 53.4988 94.4582 52.8086 94.4582 51.9572C94.4582 51.1057 93.768 50.4155 92.9165 50.4155C92.0651 50.4155 91.3749 51.1057 91.3749 51.9572C91.3749 52.8086 92.0651 53.4988 92.9165 53.4988Z" fill="#FFCB63"/>
<path d="M75.0837 44.711C75.9351 44.711 76.6253 44.0208 76.6253 43.1693C76.6253 42.3179 75.9351 41.6277 75.0837 41.6277C74.2322 41.6277 73.542 42.3179 73.542 43.1693C73.542 44.0208 74.2322 44.711 75.0837 44.711Z" fill="#49C9FF"/>
<path d="M86.7493 65.8331C87.6007 65.8331 88.291 65.1428 88.291 64.2914C88.291 63.44 87.6007 62.7498 86.7493 62.7498C85.8979 62.7498 85.2076 63.44 85.2076 64.2914C85.2076 65.1428 85.8979 65.8331 86.7493 65.8331Z" fill="#FF6337"/>
<path d="M92.9165 76.4195C94.6195 76.4195 96 75.0389 96 73.336C96 71.633 94.6195 70.2524 92.9165 70.2524C91.2135 70.2524 89.833 71.633 89.833 73.336C89.833 75.0389 91.2135 76.4195 92.9165 76.4195Z" fill="#49C9FF"/>
<path d="M75.0836 61.6697C76.7866 61.6697 78.1672 60.2892 78.1672 58.5862C78.1672 56.8832 76.7866 55.5027 75.0836 55.5027C73.3807 55.5027 72.0001 56.8832 72.0001 58.5862C72.0001 60.2892 73.3807 61.6697 75.0836 61.6697Z" fill="#FFCB63"/>
<path d="M92.9165 37.0022C94.6195 37.0022 96 35.6217 96 33.9187C96 32.2157 94.6195 30.8352 92.9165 30.8352C91.2135 30.8352 89.833 32.2157 89.833 33.9187C89.833 35.6217 91.2135 37.0022 92.9165 37.0022Z" fill="#9DB55F"/>
<path d="M3.08353 41.1646C3.93496 41.1646 4.62518 40.4744 4.62518 39.623C4.62518 38.7715 3.93496 38.0813 3.08353 38.0813C2.23209 38.0813 1.54187 38.7715 1.54187 39.623C1.54187 40.4744 2.23209 41.1646 3.08353 41.1646Z" fill="#49C9FF"/>
<path d="M12.3341 59.6658C13.1856 59.6658 13.8758 58.9756 13.8758 58.1242C13.8758 57.2727 13.1856 56.5825 12.3341 56.5825C11.4827 56.5825 10.7925 57.2727 10.7925 58.1242C10.7925 58.9756 11.4827 59.6658 12.3341 59.6658Z" fill="#FFCB63"/>
<path d="M3.08352 76.4195C4.78649 76.4195 6.16703 75.0389 6.16703 73.336C6.16703 71.633 4.78649 70.2524 3.08352 70.2524C1.38054 70.2524 0 71.633 0 73.336C0 75.0389 1.38054 76.4195 3.08352 76.4195Z" fill="#9DB55F"/>
<path d="M20.9164 55.503C22.6194 55.503 23.9999 54.1224 23.9999 52.4195C23.9999 50.7165 22.6194 49.3359 20.9164 49.3359C19.2134 49.3359 17.8329 50.7165 17.8329 52.4195C17.8329 54.1224 19.2134 55.503 20.9164 55.503Z" fill="#FF6337"/>
<path d="M3.08352 30.8352C4.78649 30.8352 6.16703 29.4547 6.16703 27.7517C6.16703 26.0488 4.78649 24.6682 3.08352 24.6682C1.38054 24.6682 0 26.0488 0 27.7517C0 29.4547 1.38054 30.8352 3.08352 30.8352Z" fill="#FFCB63"/>
<path d="M69.3523 6.16703C71.0553 6.16703 72.4358 4.78649 72.4358 3.08351C72.4358 1.38054 71.0553 0 69.3523 0C67.6493 0 66.2688 1.38054 66.2688 3.08351C66.2688 4.78649 67.6493 6.16703 69.3523 6.16703Z" fill="#FF6337"/>
<path d="M81.1353 4.62506C81.9867 4.62506 82.6769 3.93484 82.6769 3.0834C82.6769 2.23197 81.9867 1.54175 81.1353 1.54175C80.2839 1.54175 79.5936 2.23197 79.5936 3.0834C79.5936 3.93484 80.2839 4.62506 81.1353 4.62506Z" fill="#FF4128"/>
<path d="M86.7493 13.8755C87.6007 13.8755 88.291 13.1853 88.291 12.3339C88.291 11.4825 87.6007 10.7922 86.7493 10.7922C85.8979 10.7922 85.2076 11.4825 85.2076 12.3339C85.2076 13.1853 85.8979 13.8755 86.7493 13.8755Z" fill="#FFCB63"/>
<path d="M26.6477 12.334C28.3507 12.334 29.7312 10.9535 29.7312 9.25051C29.7312 7.54753 28.3507 6.16699 26.6477 6.16699C24.9447 6.16699 23.5642 7.54753 23.5642 9.25051C23.5642 10.9535 24.9447 12.334 26.6477 12.334Z" fill="#49C9FF"/>
<path d="M14.8648 4.62506C15.7162 4.62506 16.4064 3.93484 16.4064 3.0834C16.4064 2.23197 15.7162 1.54175 14.8648 1.54175C14.0133 1.54175 13.3231 2.23197 13.3231 3.0834C13.3231 3.93484 14.0133 4.62506 14.8648 4.62506Z" fill="#FF6337"/>
<path d="M9.25064 20.0425C10.1021 20.0425 10.7923 19.3523 10.7923 18.5009C10.7923 17.6495 10.1021 16.9592 9.25064 16.9592C8.39921 16.9592 7.70898 17.6495 7.70898 18.5009C7.70898 19.3523 8.39921 20.0425 9.25064 20.0425Z" fill="#9DB55F"/>
</g>
</svg>
